HIERARCHY
ROOT Hips
{
	OFFSET -14.64140 90.27770 -84.91600
	CHANNELS 6 Xposition Yposition Zposition Zrotation Xrotation Yrotation
	JOINT Spine
	{
		OFFSET 0.00000 13.20850 -1.60436
		CHANNELS 3 Zrotation Xrotation Yrotation
		JOINT Spine1
		{
			OFFSET 0.00000 8.61716 0.00000
			CHANNELS 3 Zrotation Xrotation Yrotation
			JOINT Spine2
			{
				OFFSET 0.00000 8.61717 0.00000
				CHANNELS 3 Zrotation Xrotation Yrotation
				JOINT Spine3
				{
					OFFSET 0.00000 8.61717 0.00000
					CHANNELS 3 Zrotation Xrotation Yrotation
					JOINT Neck
					{
						OFFSET 0.00000 11.07920 1.10792
						CHANNELS 3 Zrotation Xrotation Yrotation
						JOINT Neck1
						{
							OFFSET 0.00000 7.08032 0.00000
							CHANNELS 3 Zrotation Xrotation Yrotation
							JOINT Head
							{
								OFFSET 0.00000 7.08031 0.00000
								CHANNELS 3 Zrotation Xrotation Yrotation
								End site
								{
									OFFSET 0.00000 0.00000 0.00000
								}
							}
						}
					}
					JOINT RightShoulder
					{
						OFFSET -0.01000 7.91373 5.19711
						CHANNELS 3 Zrotation Xrotation Yrotation
						JOINT RightArm
						{
							OFFSET -18.41580 0.00000 0.00000
							CHANNELS 3 Zrotation Xrotation Yrotation
							JOINT RightForeArm
							{
								OFFSET -29.11090 0.00000 0.00000
								CHANNELS 3 Zrotation Xrotation Yrotation
								JOINT RightHand
								{
									OFFSET -24.65040 0.00000 0.00000
									CHANNELS 3 Zrotation Xrotation Yrotation
									JOINT RightHandThumb1
									{
										OFFSET -5.35114 -0.85590 3.97906
										CHANNELS 3 Zrotation Xrotation Yrotation
										JOINT RightHandThumb2
										{
											OFFSET -4.52789 0.00000 0.00000
											CHANNELS 3 Zrotation Xrotation Yrotation
											JOINT RightHandThumb3
											{
												OFFSET -2.46976 0.00000 0.00000
												CHANNELS 3 Zrotation Xrotation Yrotation
												End site
												{
													OFFSET 0.00000 0.00000 0.00000
												}
											}
										}
									}
									JOINT RightHandIndex1
									{
										OFFSET -14.26970 0.00000 2.88139
										CHANNELS 3 Zrotation Xrotation Yrotation
										JOINT RightHandIndex2
										{
											OFFSET -5.48836 0.00000 0.00000
											CHANNELS 3 Zrotation Xrotation Yrotation
											JOINT RightHandIndex3
											{
												OFFSET -3.01859 0.00000 0.00000
												CHANNELS 3 Zrotation Xrotation Yrotation
												End site
												{
													OFFSET 0.00000 0.00000 0.00000
												}
											}
										}
									}
									JOINT RightHandMiddle1
									{
										OFFSET -14.26970 0.00000 -0.09147
										CHANNELS 3 Zrotation Xrotation Yrotation
										JOINT RightHandMiddle2
										{
											OFFSET -6.17441 0.00000 0.00000
											CHANNELS 3 Zrotation Xrotation Yrotation
											JOINT RightHandMiddle3
											{
												OFFSET -3.56743 0.00000 0.00000
												CHANNELS 3 Zrotation Xrotation Yrotation
												End site
												{
													OFFSET 0.00000 0.00000 0.00000
												}
											}
										}
									}
									JOINT RightHandRing1
									{
										OFFSET -12.69180 0.00000 -3.06433
										CHANNELS 3 Zrotation Xrotation Yrotation
										JOINT RightHandRing2
										{
											OFFSET -5.62556 0.00000 0.00000
											CHANNELS 3 Zrotation Xrotation Yrotation
											JOINT RightHandRing3
											{
												OFFSET -3.56744 0.00000 0.00000
												CHANNELS 3 Zrotation Xrotation Yrotation
												End site
												{
													OFFSET 0.00000 0.00000 0.00000
												}
											}
										}
									}
									JOINT RightHandPinky1
									{
										OFFSET -11.11390 0.00000 -6.03719
										CHANNELS 3 Zrotation Xrotation Yrotation
										JOINT RightHandPinky2
										{
											OFFSET -4.52789 0.00000 0.00000
											CHANNELS 3 Zrotation Xrotation Yrotation
											JOINT RightHandPinky3
											{
												OFFSET -2.46976 0.00000 0.00000
												CHANNELS 3 Zrotation Xrotation Yrotation
												End site
												{
													OFFSET 0.00000 0.00000 0.00000
												}
											}
										}
									}
								}
							}
						}
					}
					JOINT LeftShoulder
					{
						OFFSET 0.01000 7.91373 5.19711
						CHANNELS 3 Zrotation Xrotation Yrotation
						JOINT LeftArm
						{
							OFFSET 18.41580 0.00000 0.00000
							CHANNELS 3 Zrotation Xrotation Yrotation
							JOINT LeftForeArm
							{
								OFFSET 29.11090 0.00000 0.00000
								CHANNELS 3 Zrotation Xrotation Yrotation
								JOINT LeftHand
								{
									OFFSET 24.65040 0.00000 0.00000
									CHANNELS 3 Zrotation Xrotation Yrotation
									JOINT LeftHandThumb1
									{
										OFFSET 5.35114 -0.85590 3.97906
										CHANNELS 3 Zrotation Xrotation Yrotation
										JOINT LeftHandThumb2
										{
											OFFSET 4.52789 0.00000 0.00000
											CHANNELS 3 Zrotation Xrotation Yrotation
											JOINT LeftHandThumb3
											{
												OFFSET 2.46977 0.00000 0.00000
												CHANNELS 3 Zrotation Xrotation Yrotation
												End site
												{
													OFFSET 0.00000 0.00000 0.00000
												}
											}
										}
									}
									JOINT LeftHandIndex1
									{
										OFFSET 14.26970 0.00000 2.88139
										CHANNELS 3 Zrotation Xrotation Yrotation
										JOINT LeftHandIndex2
										{
											OFFSET 5.48836 0.00000 0.00000
											CHANNELS 3 Zrotation Xrotation Yrotation
											JOINT LeftHandIndex3
											{
												OFFSET 3.01859 0.00000 0.00000
												CHANNELS 3 Zrotation Xrotation Yrotation
												End site
												{
													OFFSET 0.00000 0.00000 0.00000
												}
											}
										}
									}
									JOINT LeftHandMiddle1
									{
										OFFSET 14.26970 0.00000 -0.09147
										CHANNELS 3 Zrotation Xrotation Yrotation
										JOINT LeftHandMiddle2
										{
											OFFSET 6.17440 0.00000 0.00000
											CHANNELS 3 Zrotation Xrotation Yrotation
											JOINT LeftHandMiddle3
											{
												OFFSET 3.56744 0.00000 0.00000
												CHANNELS 3 Zrotation Xrotation Yrotation
												End site
												{
													OFFSET 0.00000 0.00000 0.00000
												}
											}
										}
									}
									JOINT LeftHandRing1
									{
										OFFSET 12.69180 0.00000 -3.06433
										CHANNELS 3 Zrotation Xrotation Yrotation
										JOINT LeftHandRing2
										{
											OFFSET 5.62556 0.00000 0.00000
											CHANNELS 3 Zrotation Xrotation Yrotation
											JOINT LeftHandRing3
											{
												OFFSET 3.56744 0.00000 0.00000
												CHANNELS 3 Zrotation Xrotation Yrotation
												End site
												{
													OFFSET 0.00000 0.00000 0.00000
												}
											}
										}
									}
									JOINT LeftHandPinky1
									{
										OFFSET 11.11390 0.00000 -6.03719
										CHANNELS 3 Zrotation Xrotation Yrotation
										JOINT LeftHandPinky2
										{
											OFFSET 4.52789 0.00000 0.00000
											CHANNELS 3 Zrotation Xrotation Yrotation
											JOINT LeftHandPinky3
											{
												OFFSET 2.46976 0.00000 0.00000
												CHANNELS 3 Zrotation Xrotation Yrotation
												End site
												{
													OFFSET 0.00000 0.00000 0.00000
												}
											}
										}
									}
								}
							}
						}
					}
					JOINT pCube4
					{
						OFFSET 0.00000 10.91090 1.10792
						CHANNELS 3 Zrotation Xrotation Yrotation
						End site
						{
							OFFSET 0.00000 0.00000 0.00000
						}
					}
				}
			}
		}
	}
	JOINT RightUpLeg
	{
		OFFSET -9.98441 0.00000 0.00000
		CHANNELS 3 Zrotation Xrotation Yrotation
		JOINT RightLeg
		{
			OFFSET 0.00000 -42.11790 0.00000
			CHANNELS 3 Zrotation Xrotation Yrotation
			JOINT RightFoot
			{
				OFFSET 0.00000 -45.00020 -0.00001
				CHANNELS 3 Zrotation Xrotation Yrotation
				JOINT RightForeFoot
				{
					OFFSET 0.00000 -3.74820 0.00000
					CHANNELS 3 Zrotation Xrotation Yrotation
					JOINT RightToeBase
					{
						OFFSET 0.00000 0.06325 14.43120
						CHANNELS 3 Zrotation Xrotation Yrotation
						End site
						{
							OFFSET 0.00000 0.00000 0.00000
						}
					}
				}
			}
		}
	}
	JOINT LeftUpLeg
	{
		OFFSET 9.98441 0.00000 0.00000
		CHANNELS 3 Zrotation Xrotation Yrotation
		JOINT LeftLeg
		{
			OFFSET 0.00000 -42.11800 0.00000
			CHANNELS 3 Zrotation Xrotation Yrotation
			JOINT LeftFoot
			{
				OFFSET 0.00000 -45.00070 0.00000
				CHANNELS 3 Zrotation Xrotation Yrotation
				JOINT LeftForeFoot
				{
					OFFSET 0.00000 -3.74824 0.00000
					CHANNELS 3 Zrotation Xrotation Yrotation
					JOINT LeftToeBase
					{
						OFFSET 0.00000 0.06325 14.43110
						CHANNELS 3 Zrotation Xrotation Yrotation
						End site
						{
							OFFSET 0.00000 0.00000 0.00000
						}
					}
				}
			}
		}
	}
}
MOTION
Frames: 4
Frame Time: 0.050000
-0.01444962223983145 -0.02152361874988992 0.024005604245448325 0.024347360389013088 0.04630015998954463 0.03067271583315196 2.3273141763715137 1.0506155990248747 -1.8213192278552435 -0.7990126412501921 3.3797949746464373 0.37390889918596626 -0.926682465470765 -1.652527219930389 0.5308494370457455 -0.6611037823906705 -0.31345316589381295 -0.45236314424007884 0.339374258012727 13.067682042382797 -1.3498691598684802 0.563790802900093 0.6214745969805228 -3.6224630368161033 1.0724364463237288 -14.784780978256416 -0.31867912194344217 -9.659872462979118 3.4435033692113852 -15.335233509874044 75.6897131049074 4.3338372947836135 22.00757560369717 41.888628112428414 9.90365620591204 94.34579631331967 18.108277035920434 -0.3588270556097206 -7.568896038310634 4.527637457357692 -0.13120039971178538 -1.601182664811809 -0.01726468711468768 -0.03808186735606671 -56.2439475090303 0.010495847012236149 0.030400057916133913 -56.232588619834715 -38.800753915471425 -0.048756233908668956 -0.025091375093577728 -0.005468938779979593 -0.014299798393827832 -0.005140660326527085 0.045257597508546084 -0.023895609175786595 0.02282414084133686 -36.69025156761704 -0.03903751334036478 -0.02451217525512372 0.046884557717477904 -0.02811087530463964 -0.012313011741803433 0.021200191000218874 0.027285889308568793 -0.02500208909282145 -19.733451319987807 -0.0384109267989202 -0.013115762157428896 0.02251892956572253 -0.008833876537306294 -0.03631040614902687 0.0110338763527324 -0.0019110672979186082 0.03175458577538791 24.05381547382683 0.01830237310029188 -0.015863331901396122 28.864451273637194 -0.008817400995378272 0.022470187271666404 28.815444525767568 -0.004004853649037906 0.0212325634744569 9.574531482357683 2.3247881049443753 13.184306042292922 -73.7241462185297 23.007125801444964 -19.736329951051893 -55.65978620503121 13.088772972150876 -95.97130696036578 -18.59871655764984 -8.360985492940994 6.448606566341441 -0.4437378395475229 0.07233160697404996 -8.127950270866114 0.04729131766513044 0.014780997244906856 44.573167025417526 -0.0018312407109434515 0.033963648382814404 44.600397717081385 12.45459331937973 0.040070208928016555 -0.04569239335713295 0.011876539674293305 0.01317850567263557 -0.016496472728106445 -0.047063356930365126 0.035683471112992714 -0.020214608749439568 11.128627530012288 -0.01156285760717016 -0.03132440279122414 0.04897406971298526 -0.04328213256478934 -0.03254361928045931 0.0021524097137822526 0.035565436587435974 0.018754717881278426 4.777949849688455 -0.013879095341860593 8.571544019925431e-05 -0.03371573419020858 -0.032819223862842105 0.0007965172213716938 -0.029043252452145847 -0.01844816306899607 0.014715752567832528 -5.607075174539477 -0.0204312171484962 -0.0014205506948798499 -6.697925446069173 0.024625489658003406 0.025007417013443497 -6.755468951662942 0.008260164383585952 0.0005632498167441437 -0.020351665051437276 0.0401423179147048 0.039725858635459514 8.047540810721976 3.4959759784001303 -19.216358100497438 -0.02615661023055088 10.393233852342405 0.010509084634381882 -5.639580165663368 -15.686504239743394 3.179659735802045 -0.03459887562233912 -0.014114518036417546 0.04923784281314996 -0.0312760672922779 4.747051703115431 0.027017974203988132 12.489480584063116 -8.21942393740555 6.881144077648807 0.044995523270507314 46.350012734106755 0.035651505895236565 -4.310559082601749 -14.74821477760108 -3.7947569812350523 0.04140433270851316 -0.010554484391191664 -0.01673141349448611 0.033295342282458174 -10.726375008216943 0.028527621589971033 
0.010554598417588025 -0.025736496491690103 0.015156156836685565 0.0012937987243746112 0.011392022762286081 -0.0035012896936603443 2.0159551365093566 1.021364968898985 -1.7565482269049648 -0.8203420586847935 3.349519993677444 0.41939011711894897 -0.9540063254481059 -1.6240488468004357 0.7029868049520214 -0.7475400517858781 -0.36939885661359273 -0.3929695526210492 0.4054095730554177 13.234204213657163 -1.359244779445801 0.6021760363656771 0.6466621264123177 -3.8184985763690795 1.0864281460049547 -14.679962328315558 -0.3346290373227922 -9.877552709236019 3.471634710007421 -15.294827784140137 75.35480241762475 1.1085592934713937 24.19828024400109 41.83379014263525 9.506119126127956 95.28235710958266 17.500957762664317 -0.4543292150861607 -7.300742695789334 4.5293134333516125 -0.08128243497445484 -1.5787512765768374 -0.04297888837163767 0.019714405062106845 -56.25659156661487 -0.031288732122609256 0.019014950612501743 -56.18765143280887 -38.73396678024192 -0.04036623490335563 -0.041439369708515764 -0.04836052438772209 -0.006086034993071573 -0.017444184821176864 -0.027600918895044707 0.02044369923317449 -0.009787821524918604 -36.680959316750176 0.0475660622178968 -0.04230619666656528 0.011199172367124238 -0.0009335662564059471 0.025450535158501302 0.033644230846906646 -0.027426994466014206 -0.02902983503457076 -19.75536359837236 -0.036097392755261 0.04518087002895438 -0.039738566935480384 0.02725313488998051 -0.018321890455466807 0.0010725251820625067 0.031901362262346654 -0.030590538584478372 24.044358301797388 0.04919510607809362 0.04826492592200866 28.86728149388469 -0.009630865080882305 0.014813937805539936 28.893396778936637 0.02098913941880499 0.002233600879082762 9.350221839683897 2.282298995684737 13.19335944191378 -73.53269407160931 23.408395511221133 -18.968875451235686 -54.058746626922066 12.71172424049667 -95.8674143934386 -18.048570520319384 -7.774964946519077 5.909259871762739 -0.49616037188884976 0.023661898061463738 -8.161298506054813 0.03765032692261276 -0.006430113717820523 44.52399931694758 -0.0014227326852750816 0.017266838726586207 44.60725992422708 12.450882347046457 0.007160929310440578 0.025865052999125327 -0.018975980130032065 -0.0035869241418914634 -0.025762242419970143 -0.04402727912311587 -0.028117926378433345 -0.015444593099678671 11.137112144362062 -0.011053065650266869 -0.040071797213322005 -0.013739275025599056 -0.04662817565468474 0.020113508367087325 0.016694617209908707 -0.04673403515557691 0.026407124505291004 4.752779367208388 -0.027281328561871997 -0.022298696004222882 0.0220714665225509 -0.005160600708308483 -0.013308627259719515 -0.023760928950432147 0.01826316124022529 0.0023606698747014655 -5.594760542549348 0.028051016201209117 0.03222538070503649 -6.684597811520558 0.0008261015420639719 0.013781926087340017 -6.709845161223851 -0.024496473483643432 -0.02724693341369395 -0.03077162411206562 -0.001534579282210978 0.010325209950424215 8.051959294622433 3.51633284361201 -19.257845797569523 0.0006130028843410049 10.359606320480754 0.0508944410463623 -5.613984058331235 -15.644005911654395 3.1933893846638637 0.03126236125350084 0.027855157423789502 -0.04289322087659968 0.046785947454257105 4.733291314326785 -0.02603513728125574 12.464286234504868 -8.198862435758215 6.88403400890619 -0.021157666211976452 46.395146450130284 -0.008639097725271397 -4.298361341284203 -14.782196456669201 -3.871304524376694 0.04986440144126432 -0.013847336385246614 -0.046914452672693625 -0.04090247619813575 -10.784033670803781 0.03359026504540077 
-0.03535069780037223 0.016533910264414378 0.021891942855530786 0.003072501507929933 -0.03537276746281338 0.044214344865264495 1.734820808413706 0.9100218577296597 -1.6806301727755408 -0.7886913524431154 3.4371127360187406 0.41316779061489856 -0.9828740185618354 -1.6803183266287904 0.9444890024175309 -0.8244997052080145 -0.3766821523880234 -0.39768695845194124 0.505355335143649 13.381570386285363 -1.3462545340695364 0.5830464433818483 0.6429558862601255 -4.0290090115369654 1.1832370328931752 -14.593175263856848 -0.3559228294807555 -10.095957569901257 3.5506212747473724 -15.162139055841482 75.02089660945653 -1.4512417423151567 26.507715646924318 40.810297712450165 9.32666110464908 96.42009462708377 16.92911743433888 -0.4607576726664475 -6.877918750435714 4.50532351733788 -0.15206261292097273 -1.615198538020692 -0.006203790066930641 0.023777936288984145 -56.25144696156233 0.011475454511168258 -0.021891251814441154 -56.26440174164435 -38.780822150608614 -0.017140918072064686 -0.0465111534198246 0.01442824860385052 0.03501462016930194 0.023351406611931767 -0.0019322729581666986 0.0053088998990767486 0.044220183090562075 -36.73484567944682 0.005916496383930042 0.031908584910766404 -0.03921281586876699 0.0150041385645436 -0.03625663376279091 0.013839148234870554 0.03600075173447052 0.01692137333577313 -19.748235889075982 -0.028723326705971882 -0.03635728086068984 -0.03399907688194476 0.026478001604117323 -0.04833318647149855 0.040564798689497604 -0.02461095211443461 0.031558414877006814 24.062047607730594 0.0047208429309529365 0.04548727190380184 28.828644571646418 -0.02155262584010882 -0.03924364892316718 28.91059054010929 -0.04591005625076337 -0.0027845069299494776 9.112128517761294 2.1679230313711497 13.131472395568693 -73.16300409189498 24.1464777328746 -18.295906897207264 -51.13197757988485 12.249055933717255 -95.91909961694554 -17.55872874489291 -7.401850556401334 5.4794223208199995 -0.4716276315533187 0.08564015469270389 -8.11524155075629 -0.02923272365157731 0.03153607837026597 44.584433156943405 -0.012581722641014485 0.0009897146184230314 44.5350429897077 12.42126731950321 -0.020918327666737114 0.046194725136646464 0.025870624302496658 -0.0060572346639610865 -0.00788647013390638 0.0023663517196984927 -0.020601099929383297 -0.006567753930018392 11.116873922883526 -0.007030270671022764 0.022968873784574583 -0.025194373442981623 0.012189929117540873 -0.04924160673873466 0.04304683528810685 0.008988443724362777 -0.040960694365838574 4.7464538460995644 -0.040182181955710654 0.04478858147572492 -0.03053778438198086 0.008507041126719099 0.005642471998900795 -0.018555263794878703 0.0036645024116232204 -0.0069129052081217425 -5.589504766834151 0.023904386058627984 -0.0333091412554121 -6.674146277510321 -0.03726467824244969 -0.011791234015586545 -6.677655625536762 -0.030659700382327845 0.037420362351294346 -0.002289013382945539 -0.04988721075642318 0.005882491445880826 8.023324234059944 3.4777704659896482 -19.2632906433159 0.026331876652662952 10.42751632336153 0.01380911418169049 -5.6067874931549895 -15.680106174034185 3.189843907971881 0.04835036378781656 -0.027504277262188966 -0.006033159564180417 -0.006980637192518502 4.70436137814951 0.04374620805846594 12.508846018460583 -8.189001364543117 6.882762746849718 0.022426816420566827 46.35147968875347 0.02002644432444285 -4.352301952193891 -14.791253923785641 -3.833410262481662 -0.01000981865815541 -0.016063778007279615 -0.02061930016284826 -0.0011283040460460976 -10.737953432604918 -0.03806598639806939 
-0.017016715613323363 0.048894995429408956 -0.04665135703971481 0.013732960413608518 0.013240613559047926 -0.02391171283516406 1.6759865430939138 0.8334021350979397 -1.6625896711064057 -0.8535622795214644 3.4022431453089523 0.37546380389691714 -1.0184926651788304 -1.727385044433345 1.0824738622321752 -0.877398725302972 -0.3636986442075838 -0.3158853600841674 0.5191837646657934 13.489876211576693 -1.380008995882242 0.615004297938327 0.7090956771125541 -3.9716780756716252 1.1568198112808632 -14.562891936697618 -0.341746662503024 -10.299885517299392 3.649078415861573 -15.117441032569731 75.12917639240645 -2.73052207937356 28.494266444657583 40.33763256606995 9.31539127842045 98.09803593353999 16.450581318847288 -0.4692104604158156 -6.7954407392089555 4.542212793056169 -0.13212727312083125 -1.6218800895329453 -0.04521708821710947 0.022430011930445685 -56.251553118338784 -0.04135121174060673 -0.022812063260173262 -56.22817121649224 -38.748058603703996 -0.022051820518876476 0.006421296177174765 0.01791814082652107 -0.0273091460147015 0.02386768785864999 -0.026092880230365687 0.025163836874616364 0.01632430911266308 -36.671674576394324 0.020789594967829443 0.026317653067874276 -0.02073954395426111 0.016441257646397353 0.00319777254675692 0.03099181421815437 -0.02131012233584469 0.02911857474038189 -19.790402027667092 -0.0309069413634479 0.007388054690851086 0.02050036806044868 0.01167597407044497 0.0024541071620337897 -0.009758326044525496 -0.008031777587467068 0.00998196255745176 24.017131865877605 -0.03372163532848 0.017913173004133438 28.851785142094162 -0.03006128172040396 -0.0052263102325409115 28.870770450846923 -0.0063482716632629905 -0.024937260689828586 9.112785280107145 2.2451963816005622 13.162657045749123 -73.10241888872311 24.706123362495976 -18.26537710741645 -49.444624934608576 12.290496041739194 -97.06514925532306 -17.43967963303493 -7.43984716314273 5.297434767491361 -0.503650704821478 0.08127657876120803 -8.130019054510132 -0.026298678821476087 -0.035968915711227845 44.591728130727155 -0.0088898209374174 0.034698148908353474 44.53328903825349 12.469052668096161 -0.02158036872249259 -0.027852884516628748 0.0311858374050752 -0.013178056823059477 -0.031157774581632477 -0.01133910899186011 0.044818472334628066 -0.02214872427760849 11.115721977071269 0.017338425824221085 0.018986382171599866 0.021796597839776354 0.00859388623811243 -0.02867465569769435 -0.01506643713416637 -0.026605909728561368 -0.03680549453296805 4.7906057520175445 -0.019196903362100923 -0.015007026042734704 0.03096230962566331 0.02925402343939896 -0.006858849391350159 0.01605978029357402 -0.02079960518164882 0.04944552204574575 -5.622949528308118 -0.009551993482933997 0.009196770736000807 -6.719249700376824 -0.015202929677162936 -0.01717658107251288 -6.735448993993281 0.020143574180767707 -0.0136347059773438 0.03312699825622149 0.019627112462858812 0.015987562806492366 8.020485242880255 3.4884068816471485 -19.186924386741012 0.018973025746379008 10.378296454202045 -0.0074072557995613075 -5.635567796442601 -15.67576907617022 3.1765997653998364 0.0388273519314288 -0.006838185502281063 -0.011312876904602136 -0.005612833594962401 4.678873588356331 -0.04336524319819015 12.470983522118537 -8.217714474676423 6.921609760481304 0.01853521961328117 46.39730767803655 0.026550268298859866 -4.3452734244284645 -14.776057566448443 -3.812455740626864 -0.010664432286067518 -0.029604413070984978 0.00805447065108286 0.04756526535620084 -10.736576371412026 -0.04899171840600815 
